<svg xmlns="http://www.w3.org/2000/svg" xmlns:xlink="http://www.w3.org/1999/xlink" width="2000" zoomAndPan="magnify" viewBox="0 0 1500 1499.999933" height="2000" preserveAspectRatio="xMidYMid meet" version="1.0"><defs><filter x="0%" y="0%" width="100%" height="100%" id="1cb7865fd6"><feColorMatrix values="0 0 0 0 1 0 0 0 0 1 0 0 0 0 1 0 0 0 1 0" color-interpolation-filters="sRGB"/></filter><g/><clipPath id="f571b05ec8"><path d="M 0 0 L 1500 0 L 1500 1500 L 0 1500 Z M 0 0 " clip-rule="nonzero"/></clipPath><linearGradient x1="658.297" gradientTransform="matrix(1.017623, 0, 0, 1.017541, 80.30827, 87.068761)" y1="-85.567803" x2="658.297" gradientUnits="userSpaceOnUse" y2="1388.573892" id="f97d0e2707"><stop stop-opacity="1" stop-color="rgb(1.959229%, 0.779724%, 53.729248%)" offset="0"/><stop stop-opacity="1" stop-color="rgb(1.959229%, 0.779724%, 53.729248%)" offset="0.03125"/><stop stop-opacity="1" stop-color="rgb(2.006531%, 0.837708%, 53.793335%)" offset="0.0390625"/><stop stop-opacity="1" stop-color="rgb(2.192688%, 1.065063%, 54.043579%)" offset="0.046875"/><stop stop-opacity="1" stop-color="rgb(2.46582%, 1.402283%, 54.412842%)" offset="0.0546875"/><stop stop-opacity="1" stop-color="rgb(2.740479%, 1.739502%, 54.78363%)" offset="0.0625"/><stop stop-opacity="1" stop-color="rgb(3.015137%, 2.076721%, 55.154419%)" offset="0.0703125"/><stop stop-opacity="1" stop-color="rgb(3.289795%, 2.41394%, 55.523682%)" offset="0.078125"/><stop stop-opacity="1" stop-color="rgb(3.564453%, 2.75116%, 55.89447%)" offset="0.0859375"/><stop stop-opacity="1" stop-color="rgb(3.839111%, 3.088379%, 56.265259%)" offset="0.09375"/><stop stop-opacity="1" stop-color="rgb(4.11377%, 3.425598%, 56.634521%)" offset="0.101562"/><stop stop-opacity="1" stop-color="rgb(4.386902%, 3.762817%, 57.00531%)" offset="0.109375"/><stop stop-opacity="1" stop-color="rgb(4.66156%, 4.100037%, 57.376099%)" offset="0.117187"/><stop stop-opacity="1" stop-color="rgb(4.936218%, 4.437256%, 57.745361%)" offset="0.125"/><stop stop-opacity="1" stop-color="rgb(5.210876%, 4.774475%, 58.11615%)" offset="0.132812"/><stop stop-opacity="1" stop-color="rgb(5.485535%, 5.111694%, 58.486938%)" offset="0.140625"/><stop stop-opacity="1" stop-color="rgb(5.760193%, 5.448914%, 58.856201%)" offset="0.148437"/><stop stop-opacity="1" stop-color="rgb(6.033325%, 5.786133%, 59.22699%)" offset="0.15625"/><stop stop-opacity="1" stop-color="rgb(6.307983%, 6.123352%, 59.597778%)" offset="0.164062"/><stop stop-opacity="1" stop-color="rgb(6.582642%, 6.460571%, 59.967041%)" offset="0.171875"/><stop stop-opacity="1" stop-color="rgb(6.8573%, 6.797791%, 60.33783%)" offset="0.179687"/><stop stop-opacity="1" stop-color="rgb(7.131958%, 7.13501%, 60.708618%)" offset="0.1875"/><stop stop-opacity="1" stop-color="rgb(7.406616%, 7.472229%, 61.077881%)" offset="0.195312"/><stop stop-opacity="1" stop-color="rgb(7.681274%, 7.809448%, 61.448669%)" offset="0.203125"/><stop stop-opacity="1" stop-color="rgb(7.954407%, 8.146667%, 61.819458%)" offset="0.210937"/><stop stop-opacity="1" stop-color="rgb(8.229065%, 8.483887%, 62.188721%)" offset="0.21875"/><stop stop-opacity="1" stop-color="rgb(8.503723%, 8.821106%, 62.559509%)" offset="0.226562"/><stop stop-opacity="1" stop-color="rgb(8.778381%, 9.158325%, 62.930298%)" offset="0.234375"/><stop stop-opacity="1" stop-color="rgb(9.05304%, 9.495544%, 63.299561%)" offset="0.242187"/><stop stop-opacity="1" stop-color="rgb(9.327698%, 9.832764%, 63.670349%)" offset="0.25"/><stop stop-opacity="1" stop-color="rgb(9.602356%, 10.169983%, 64.041138%)" offset="0.257812"/><stop stop-opacity="1" stop-color="rgb(9.875488%, 10.507202%, 64.4104%)" offset="0.265625"/><stop stop-opacity="1" stop-color="rgb(10.150146%, 10.844421%, 64.781189%)" offset="0.273437"/><stop stop-opacity="1" stop-color="rgb(10.424805%, 11.181641%, 65.151978%)" offset="0.28125"/><stop stop-opacity="1" stop-color="rgb(10.699463%, 11.51886%, 65.52124%)" offset="0.289062"/><stop stop-opacity="1" stop-color="rgb(10.974121%, 11.856079%, 65.892029%)" offset="0.296875"/><stop stop-opacity="1" stop-color="rgb(11.248779%, 12.193298%, 66.262817%)" offset="0.304687"/><stop stop-opacity="1" stop-color="rgb(11.521912%, 12.530518%, 66.63208%)" offset="0.3125"/><stop stop-opacity="1" stop-color="rgb(11.79657%, 12.867737%, 67.002869%)" offset="0.320312"/><stop stop-opacity="1" stop-color="rgb(12.071228%, 13.204956%, 67.373657%)" offset="0.328125"/><stop stop-opacity="1" stop-color="rgb(12.345886%, 13.542175%, 67.744446%)" offset="0.335937"/><stop stop-opacity="1" stop-color="rgb(12.620544%, 13.879395%, 68.113708%)" offset="0.34375"/><stop stop-opacity="1" stop-color="rgb(12.895203%, 14.216614%, 68.484497%)" offset="0.351562"/><stop stop-opacity="1" stop-color="rgb(13.169861%, 14.553833%, 68.855286%)" offset="0.359375"/><stop stop-opacity="1" stop-color="rgb(13.442993%, 14.891052%, 69.224548%)" offset="0.367187"/><stop stop-opacity="1" stop-color="rgb(13.717651%, 15.228271%, 69.595337%)" offset="0.375"/><stop stop-opacity="1" stop-color="rgb(13.99231%, 15.565491%, 69.966125%)" offset="0.382812"/><stop stop-opacity="1" stop-color="rgb(14.266968%, 15.90271%, 70.335388%)" offset="0.390625"/><stop stop-opacity="1" stop-color="rgb(14.541626%, 16.239929%, 70.706177%)" offset="0.398437"/><stop stop-opacity="1" stop-color="rgb(14.816284%, 16.577148%, 71.076965%)" offset="0.40625"/><stop stop-opacity="1" stop-color="rgb(15.089417%, 16.914368%, 71.446228%)" offset="0.414062"/><stop stop-opacity="1" stop-color="rgb(15.364075%, 17.251587%, 71.817017%)" offset="0.421875"/><stop stop-opacity="1" stop-color="rgb(15.638733%, 17.588806%, 72.187805%)" offset="0.429687"/><stop stop-opacity="1" stop-color="rgb(15.913391%, 17.926025%, 72.557068%)" offset="0.4375"/><stop stop-opacity="1" stop-color="rgb(16.188049%, 18.263245%, 72.927856%)" offset="0.445312"/><stop stop-opacity="1" stop-color="rgb(16.462708%, 18.600464%, 73.298645%)" offset="0.453125"/><stop stop-opacity="1" stop-color="rgb(16.737366%, 18.937683%, 73.667908%)" offset="0.460937"/><stop stop-opacity="1" stop-color="rgb(17.010498%, 19.274902%, 74.038696%)" offset="0.46875"/><stop stop-opacity="1" stop-color="rgb(17.285156%, 19.612122%, 74.409485%)" offset="0.476562"/><stop stop-opacity="1" stop-color="rgb(17.559814%, 19.950867%, 74.778748%)" offset="0.484375"/><stop stop-opacity="1" stop-color="rgb(17.834473%, 20.288086%, 75.149536%)" offset="0.492187"/><stop stop-opacity="1" stop-color="rgb(18.109131%, 20.625305%, 75.520325%)" offset="0.5"/><stop stop-opacity="1" stop-color="rgb(18.383789%, 20.962524%, 75.889587%)" offset="0.507812"/><stop stop-opacity="1" stop-color="rgb(18.658447%, 21.299744%, 76.260376%)" offset="0.515625"/><stop stop-opacity="1" stop-color="rgb(18.93158%, 21.636963%, 76.631165%)" offset="0.523437"/><stop stop-opacity="1" stop-color="rgb(19.206238%, 21.974182%, 77.000427%)" offset="0.53125"/><stop stop-opacity="1" stop-color="rgb(19.480896%, 22.311401%, 77.371216%)" offset="0.539062"/><stop stop-opacity="1" stop-color="rgb(19.755554%, 22.648621%, 77.742004%)" offset="0.546875"/><stop stop-opacity="1" stop-color="rgb(20.030212%, 22.98584%, 78.111267%)" offset="0.554687"/><stop stop-opacity="1" stop-color="rgb(20.304871%, 23.323059%, 78.482056%)" offset="0.5625"/><stop stop-opacity="1" stop-color="rgb(20.578003%, 23.660278%, 78.852844%)" offset="0.570312"/><stop stop-opacity="1" stop-color="rgb(20.852661%, 23.997498%, 79.222107%)" offset="0.578125"/><stop stop-opacity="1" stop-color="rgb(21.127319%, 24.334717%, 79.592896%)" offset="0.585937"/><stop stop-opacity="1" stop-color="rgb(21.401978%, 24.671936%, 79.963684%)" offset="0.59375"/><stop stop-opacity="1" stop-color="rgb(21.676636%, 25.009155%, 80.332947%)" offset="0.601562"/><stop stop-opacity="1" stop-color="rgb(21.951294%, 25.346375%, 80.703735%)" offset="0.609375"/><stop stop-opacity="1" stop-color="rgb(22.225952%, 25.683594%, 81.074524%)" offset="0.617187"/><stop stop-opacity="1" stop-color="rgb(22.499084%, 26.020813%, 81.443787%)" offset="0.625"/><stop stop-opacity="1" stop-color="rgb(22.773743%, 26.358032%, 81.814575%)" offset="0.632812"/><stop stop-opacity="1" stop-color="rgb(23.048401%, 26.695251%, 82.185364%)" offset="0.640625"/><stop stop-opacity="1" stop-color="rgb(23.323059%, 27.032471%, 82.554626%)" offset="0.648437"/><stop stop-opacity="1" stop-color="rgb(23.597717%, 27.36969%, 82.925415%)" offset="0.65625"/><stop stop-opacity="1" stop-color="rgb(23.872375%, 27.706909%, 83.296204%)" offset="0.664062"/><stop stop-opacity="1" stop-color="rgb(24.147034%, 28.044128%, 83.665466%)" offset="0.671875"/><stop stop-opacity="1" stop-color="rgb(24.420166%, 28.381348%, 84.036255%)" offset="0.679687"/><stop stop-opacity="1" stop-color="rgb(24.694824%, 28.718567%, 84.407043%)" offset="0.6875"/><stop stop-opacity="1" stop-color="rgb(24.969482%, 29.055786%, 84.776306%)" offset="0.695312"/><stop stop-opacity="1" stop-color="rgb(25.244141%, 29.393005%, 85.147095%)" offset="0.703125"/><stop stop-opacity="1" stop-color="rgb(25.518799%, 29.730225%, 85.517883%)" offset="0.710937"/><stop stop-opacity="1" stop-color="rgb(25.793457%, 30.067444%, 85.887146%)" offset="0.71875"/><stop stop-opacity="1" stop-color="rgb(26.066589%, 30.404663%, 86.257935%)" offset="0.726562"/><stop stop-opacity="1" stop-color="rgb(26.341248%, 30.741882%, 86.628723%)" offset="0.734375"/><stop stop-opacity="1" stop-color="rgb(26.615906%, 31.079102%, 86.997986%)" offset="0.742187"/><stop stop-opacity="1" stop-color="rgb(26.890564%, 31.416321%, 87.368774%)" offset="0.75"/><stop stop-opacity="1" stop-color="rgb(27.165222%, 31.75354%, 87.739563%)" offset="0.757812"/><stop stop-opacity="1" stop-color="rgb(27.43988%, 32.090759%, 88.108826%)" offset="0.765625"/><stop stop-opacity="1" stop-color="rgb(27.714539%, 32.427979%, 88.479614%)" offset="0.773437"/><stop stop-opacity="1" stop-color="rgb(27.987671%, 32.765198%, 88.850403%)" offset="0.78125"/><stop stop-opacity="1" stop-color="rgb(28.262329%, 33.102417%, 89.221191%)" offset="0.789062"/><stop stop-opacity="1" stop-color="rgb(28.536987%, 33.439636%, 89.590454%)" offset="0.796875"/><stop stop-opacity="1" stop-color="rgb(28.811646%, 33.776855%, 89.961243%)" offset="0.804687"/><stop stop-opacity="1" stop-color="rgb(29.086304%, 34.114075%, 90.332031%)" offset="0.8125"/><stop stop-opacity="1" stop-color="rgb(29.360962%, 34.451294%, 90.701294%)" offset="0.820312"/><stop stop-opacity="1" stop-color="rgb(29.63562%, 34.788513%, 91.072083%)" offset="0.828125"/><stop stop-opacity="1" stop-color="rgb(29.908752%, 35.125732%, 91.442871%)" offset="0.835937"/><stop stop-opacity="1" stop-color="rgb(30.183411%, 35.462952%, 91.812134%)" offset="0.84375"/><stop stop-opacity="1" stop-color="rgb(30.458069%, 35.800171%, 92.182922%)" offset="0.851562"/><stop stop-opacity="1" stop-color="rgb(30.732727%, 36.13739%, 92.553711%)" offset="0.859375"/><stop stop-opacity="1" stop-color="rgb(31.007385%, 36.474609%, 92.922974%)" offset="0.867187"/><stop stop-opacity="1" stop-color="rgb(31.282043%, 36.811829%, 93.293762%)" offset="0.875"/><stop stop-opacity="1" stop-color="rgb(31.555176%, 37.149048%, 93.664551%)" offset="0.882812"/><stop stop-opacity="1" stop-color="rgb(31.829834%, 37.486267%, 94.033813%)" offset="0.890625"/><stop stop-opacity="1" stop-color="rgb(32.104492%, 37.823486%, 94.404602%)" offset="0.898437"/><stop stop-opacity="1" stop-color="rgb(32.37915%, 38.160706%, 94.775391%)" offset="0.90625"/><stop stop-opacity="1" stop-color="rgb(32.653809%, 38.497925%, 95.144653%)" offset="0.914062"/><stop stop-opacity="1" stop-color="rgb(32.928467%, 38.835144%, 95.515442%)" offset="0.921875"/><stop stop-opacity="1" stop-color="rgb(33.203125%, 39.172363%, 95.88623%)" offset="0.929688"/><stop stop-opacity="1" stop-color="rgb(33.476257%, 39.509583%, 96.255493%)" offset="0.9375"/><stop stop-opacity="1" stop-color="rgb(33.750916%, 39.846802%, 96.626282%)" offset="0.945312"/><stop stop-opacity="1" stop-color="rgb(34.025574%, 40.184021%, 96.99707%)" offset="0.953125"/><stop stop-opacity="1" stop-color="rgb(34.300232%, 40.52124%, 97.366333%)" offset="0.960937"/><stop stop-opacity="1" stop-color="rgb(34.472656%, 40.734863%, 97.599792%)" offset="0.96875"/><stop stop-opacity="1" stop-color="rgb(34.509277%, 40.779114%, 97.648621%)" offset="1"/></linearGradient><clipPath id="ab84e54bda"><rect x="0" width="1500" y="0" height="1500"/></clipPath><clipPath id="dc59514b1c"><rect x="0" width="1500" y="0" height="1500"/></clipPath><clipPath id="25637880fd"><rect x="0" width="1500" y="0" height="1500"/></clipPath><mask id="6f30bf8438"><g filter="url(#1cb7865fd6)"><g transform="matrix(1, 0, 0, 1, 0, 0.000000000000112861)"><g clip-path="url(#25637880fd)"><g transform="matrix(1, 0, 0, 1, 0, 0.000000000000112861)"><g clip-path="url(#dc59514b1c)"><g fill="#000000" fill-opacity="1"><g transform="translate(80.095522, 1132.120982)"><g><path d="M 36 -813.921875 L 256.78125 -813.921875 C 316.15625 -813.921875 359.265625 -799.390625 386.109375 -770.328125 C 412.960938 -741.273438 426.390625 -693.90625 426.390625 -628.21875 L 426.390625 -592.203125 C 426.390625 -514.503906 398.59375 -468.078125 343 -452.921875 C 377.113281 -444.078125 401.117188 -423.546875 415.015625 -391.328125 C 428.910156 -359.109375 435.859375 -316.46875 435.859375 -263.40625 C 435.859375 -176.875 422.910156 -111.335938 397.015625 -66.796875 C 371.117188 -22.265625 324.375 0 256.78125 0 L 36 0 Z M 228.359375 -507.875 C 242.253906 -507.875 251.726562 -513.082031 256.78125 -523.5 C 261.832031 -533.925781 264.359375 -548.617188 264.359375 -567.578125 L 264.359375 -649.0625 C 264.359375 -675.59375 252.671875 -688.859375 229.296875 -688.859375 L 195.1875 -688.859375 L 195.1875 -507.875 Z M 211.296875 -143.078125 C 253.617188 -143.078125 274.78125 -163.289062 274.78125 -203.71875 L 274.78125 -305.109375 C 274.78125 -329.742188 271.144531 -348.375 263.875 -361 C 256.613281 -373.632812 243.828125 -379.953125 225.515625 -379.953125 L 195.1875 -379.953125 L 195.1875 -144.03125 Z M 211.296875 -143.078125 "/></g></g></g><g fill="#000000" fill-opacity="1"><g transform="translate(533.96061, 1132.120982)"><g><path d="M 229.296875 7.578125 C 155.390625 7.578125 102.007812 -10.738281 69.15625 -47.375 C 36.3125 -84.007812 19.890625 -143.070312 19.890625 -224.5625 L 19.890625 -304.15625 L 180.03125 -304.15625 L 180.03125 -202.765625 C 180.03125 -162.335938 192.976562 -142.125 218.875 -142.125 C 233.40625 -142.125 243.515625 -146.390625 249.203125 -154.921875 C 254.890625 -163.453125 257.734375 -177.820312 257.734375 -198.03125 C 257.734375 -224.5625 254.570312 -246.507812 248.25 -263.875 C 241.9375 -281.25 233.882812 -295.78125 224.09375 -307.46875 C 214.300781 -319.15625 196.769531 -337.316406 171.5 -361.953125 L 101.390625 -432.078125 C 47.054688 -485.140625 19.890625 -543.882812 19.890625 -608.3125 C 19.890625 -677.800781 35.835938 -730.707031 67.734375 -767.03125 C 99.640625 -803.351562 146.234375 -821.515625 207.515625 -821.515625 C 280.785156 -821.515625 333.53125 -802.085938 365.75 -763.234375 C 397.96875 -724.390625 414.078125 -663.59375 414.078125 -580.84375 L 248.25 -580.84375 L 247.3125 -636.734375 C 247.3125 -647.472656 244.304688 -656 238.296875 -662.3125 C 232.296875 -668.632812 223.925781 -671.796875 213.1875 -671.796875 C 200.5625 -671.796875 191.085938 -668.320312 184.765625 -661.375 C 178.453125 -654.425781 175.296875 -644.953125 175.296875 -632.953125 C 175.296875 -606.421875 190.457031 -578.941406 220.78125 -550.515625 L 315.53125 -459.546875 C 337.632812 -438.078125 355.953125 -417.707031 370.484375 -398.4375 C 385.015625 -379.164062 396.703125 -356.421875 405.546875 -330.203125 C 414.390625 -303.992188 418.8125 -272.882812 418.8125 -236.875 C 418.8125 -156.65625 404.125 -95.859375 374.75 -54.484375 C 345.375 -13.109375 296.890625 7.578125 229.296875 7.578125 Z M 229.296875 7.578125 "/></g></g></g><g fill="#000000" fill-opacity="1"><g transform="translate(970.770286, 1132.120982)"><g><path d="M 225.515625 7.578125 C 166.128906 7.578125 118.59375 -11.054688 82.90625 -48.328125 C 47.21875 -85.597656 29.375 -136.765625 29.375 -201.828125 L 29.375 -577.046875 C 29.375 -657.898438 45.476562 -718.859375 77.6875 -759.921875 C 109.90625 -800.984375 160.441406 -821.515625 229.296875 -821.515625 C 289.304688 -821.515625 337.628906 -805.085938 374.265625 -772.234375 C 410.910156 -739.390625 429.234375 -692.015625 429.234375 -630.109375 L 429.234375 -489.875 L 267.203125 -489.875 L 267.203125 -610.203125 C 267.203125 -633.578125 264.359375 -649.6875 258.671875 -658.53125 C 252.984375 -667.375 243.191406 -671.796875 229.296875 -671.796875 C 214.773438 -671.796875 204.828125 -666.742188 199.453125 -656.640625 C 194.085938 -646.535156 191.40625 -631.691406 191.40625 -612.109375 L 191.40625 -203.71875 C 191.40625 -182.238281 194.5625 -166.601562 200.875 -156.8125 C 207.195312 -147.019531 216.671875 -142.125 229.296875 -142.125 C 254.566406 -142.125 267.203125 -162.65625 267.203125 -203.71875 L 267.203125 -350.59375 L 431.125 -350.59375 L 431.125 -197.09375 C 431.125 -60.644531 362.585938 7.578125 225.515625 7.578125 Z M 225.515625 7.578125 "/></g></g></g></g></g></g></g></g></mask><clipPath id="257dc5198d"><path d="M 0 0 L 1500 0 L 1500 1500 L 0 1500 Z M 0 0 " clip-rule="nonzero"/></clipPath><clipPath id="20ae92591f"><rect x="0" width="1500" y="0" height="1500"/></clipPath><clipPath id="c5d836e7fa"><rect x="0" width="1500" y="0" height="1500"/></clipPath><clipPath id="eba0be6703"><rect x="0" width="1500" y="0" height="1500"/></clipPath></defs><g transform="matrix(1, 0, 0, 1, 0, 0.000000000000112861)"><g clip-path="url(#eba0be6703)"><g transform="matrix(1, 0, 0, 1, 0, 0.000000000000112861)"><g clip-path="url(#c5d836e7fa)"><g mask="url(#6f30bf8438)"><g transform="matrix(1, 0, 0, 1, 0, 0.000000000000112861)"><g clip-path="url(#20ae92591f)"><g clip-path="url(#257dc5198d)"><rect x="-805.2" fill="url(#f97d0e2707)" width="3110.4" height="3110.399862" y="-805.199964"/></g></g></g></g></g></g></g></g></svg>